<?xml version="1.0" encoding="utf-8"?>
<!-- Generator: Adobe Illustrator 26.0.1, SVG Export Plug-In . SVG Version: 6.00 Build 0)  -->
<svg version="1.1" id="Calque_1" xmlns="http://www.w3.org/2000/svg" xmlns:xlink="http://www.w3.org/1999/xlink" x="0px" y="0px"
	 viewBox="0 0 700 700" style="enable-background:new 0 0 700 700;" xml:space="preserve">
<style type="text/css">
	.st0{fill:url(#SVGID_1_);}
</style>
<g>
	<linearGradient id="SVGID_1_" gradientUnits="userSpaceOnUse" x1="214.9981" y1="616.8447" x2="483.4111" y2="151.9397">
		<stop  offset="0" style="stop-color:#868356"/>
		<stop  offset="1" style="stop-color:#999966;stop-opacity:0.5"/>
	</linearGradient>
	<path class="st0" d="M617.7,501.5V265.7c0-34.7-28-62.7-62.7-62.7h-86.8l-2.2-8.4c-8.4-36.4-40.9-62.2-78.4-62.2l-76.7,0
		c-37.5,0-70,25.8-78.4,62.2l-2.2,8.4l-86.2,0c-34.7,0-62.7,28-62.7,62.7v235.8c0,36.4,29.7,66.1,66.1,66.1h404.3
		C588,567.6,617.7,537.9,617.7,501.5L617.7,501.5z M109.2,501.5V265.7c0-19,15.7-34.7,34.7-34.7h97.4c6.7,0,12.3-4.5,13.4-10.6
		l4.5-19.6c5.6-24.1,26.3-40.3,51-40.3h77.3c24.6,0,45.4,16.8,51,40.3l4.5,19.6c1.7,6.2,7.3,10.6,13.4,10.6h97.4
		c19,0,34.7,15.7,34.7,34.7v235.8c0,20.7-16.8,38.1-38.1,38.1H147.3C126.6,539.6,109.2,522.2,109.2,501.5z M192.6,287
		c0,11.2-9,20.2-20.2,20.2c-11.2,0-20.2-9-20.2-20.2s9-20.2,20.2-20.2C183.7,266.8,192.6,275.8,192.6,287z M349.4,273
		c-62.2,0-113.1,50.4-113.1,113.1c0,62.2,50.4,113.1,113.1,113.1c62.7,0,113.1-50.4,113.1-113.1S411.6,273,349.4,273L349.4,273z
		 M349.4,470.7c-47,0-85.1-38.1-85.1-85.1c0-47,38.1-85.1,85.1-85.1c47,0,85.1,38.1,85.1,85.1C434.6,432.6,396.5,470.7,349.4,470.7z
		"/>
</g>
</svg>
